<?xml version="1.0" standalone="no"?>
<!DOCTYPE svg PUBLIC "-//W3C//DTD SVG 20010904//EN"
 "http://www.w3.org/TR/2001/REC-SVG-20010904/DTD/svg10.dtd">
<svg version="1.0" xmlns="http://www.w3.org/2000/svg"
 width="280.000000pt" height="300.000000pt" viewBox="0 0 280.000000 300.000000"
 preserveAspectRatio="xMidYMid meet">
<metadata>
Created by potrace 1.16, written by Peter Selinger 2001-2019
</metadata>
<g transform="translate(0.000000,300.000000) scale(0.100000,-0.100000)"
fill="#000000" stroke="none">
<path d="M1476 2844 c-9 -8 -16 -20 -16 -25 0 -15 46 -80 90 -129 23 -25 46
-55 51 -68 5 -13 15 -22 22 -19 19 6 9 96 -14 125 -10 14 -19 32 -19 41 0 19
-42 62 -77 80 -17 9 -25 8 -37 -5z"/>
<path d="M1475 2535 c-14 -13 -25 -36 -25 -50 0 -47 84 -201 145 -266 8 -9 15
-26 15 -39 0 -21 -3 -22 -41 -16 -45 7 -69 -5 -69 -34 0 -15 12 -23 92 -61 56
-25 78 -96 56 -172 -6 -23 -13 -49 -14 -57 -6 -47 -70 -145 -145 -223 -45 -48
-87 -87 -93 -87 -6 0 -17 -9 -24 -21 -7 -11 -19 -18 -27 -15 -7 2 -16 -2 -19
-9 -4 -12 -28 -30 -107 -80 -9 -5 -35 -20 -58 -33 -22 -12 -41 -26 -41 -29 0
-4 19 -27 42 -50 41 -42 39 -55 -5 -32 -29 15 -122 101 -122 113 0 8 21 16 53
18 6 1 12 4 12 8 0 4 16 24 35 44 34 36 45 66 25 66 -5 0 -10 -3 -10 -7 0 -5
-91 -7 -201 -5 -133 2 -205 0 -212 -7 -14 -14 -117 -14 -117 -1 0 6 -4 10 -10
10 -6 0 -10 -50 -10 -130 0 -112 -2 -132 -16 -137 -18 -7 -127 11 -181 30 -18
6 -35 8 -38 6 -6 -6 31 -181 45 -214 5 -11 12 -31 16 -45 3 -14 23 -52 43 -85
20 -33 43 -72 51 -87 22 -40 150 -170 193 -197 20 -12 37 -29 37 -37 0 -9 5
-12 10 -9 6 4 26 -5 45 -19 18 -14 40 -26 48 -26 7 0 17 -3 21 -7 12 -13 100
-43 124 -43 12 0 25 -7 29 -16 4 -12 14 -14 39 -9 19 3 43 1 54 -5 20 -11 290
-14 365 -4 22 3 55 5 73 5 17 0 32 5 32 10 0 5 7 9 15 9 9 0 39 12 67 26 41
21 52 23 59 12 7 -10 9 -9 9 3 0 9 25 35 56 59 62 47 161 147 198 200 37 52
116 217 133 275 44 152 46 167 57 384 3 68 9 128 12 133 4 6 2 13 -3 17 -6 3
-13 30 -17 60 -4 30 -14 72 -21 95 -8 23 -15 53 -15 67 0 39 -69 199 -134 311
-31 53 -56 100 -56 104 0 3 -12 21 -27 39 -16 18 -48 60 -72 94 -24 34 -62 77
-84 96 -21 18 -36 38 -33 43 3 6 -5 9 -18 8 -13 0 -22 -3 -20 -5 6 -7 -17 -31
-30 -31 -6 0 -22 10 -36 23 -70 64 -115 73 -155 32z m467 -1092 l37 -38 -52
-4 c-29 -2 -97 -4 -152 -5 l-100 -1 -3 154 -3 154 118 -111 c65 -61 135 -128
155 -149z m-617 -380 l79 -6 128 -125 c71 -69 126 -127 124 -129 -14 -15 -65
23 -168 125 l-117 115 -153 -7 c-84 -4 -166 -8 -183 -9 -115 -4 -427 4 -419
12 5 5 119 12 254 16 135 4 247 9 249 11 7 6 120 5 206 -3z"/>
<path d="M1599 1966 c-10 -10 -975 -21 -1001 -11 -11 4 -14 -19 -15 -124 -2
-102 1 -130 12 -134 7 -3 154 -4 327 -1 172 2 345 5 385 5 53 0 73 4 77 14 3
8 12 15 21 15 8 0 23 13 33 29 10 16 55 68 100 116 45 48 82 89 82 91 0 5 -16
5 -21 0z"/>
</g>
</svg>
